<svg width="16" height="16" viewBox="0 0 16 16" fill="none" xmlns="http://www.w3.org/2000/svg">
<path d="M12.3933 8.66667H1.99998C1.82317 8.66667 1.6536 8.59643 1.52858 8.47141C1.40355 8.34638 1.33331 8.17681 1.33331 8C1.33331 7.82319 1.40355 7.65362 1.52858 7.5286C1.6536 7.40357 1.82317 7.33334 1.99998 7.33334H12.3933L8.85998 3.8C8.79065 3.73973 8.73453 3.66579 8.69513 3.5828C8.65573 3.49982 8.6339 3.40959 8.63102 3.31777C8.62814 3.22595 8.64427 3.13453 8.67839 3.04924C8.71252 2.96395 8.7639 2.88663 8.82931 2.82213C8.89473 2.75764 8.97277 2.70736 9.05853 2.67445C9.1443 2.64154 9.23594 2.62671 9.32771 2.63089C9.41948 2.63508 9.50939 2.65818 9.59181 2.69875C9.67422 2.73932 9.74737 2.79649 9.80665 2.86667L14.4733 7.53334C14.5955 7.65795 14.6639 7.8255 14.6639 8C14.6639 8.1745 14.5955 8.34205 14.4733 8.46667L9.80665 13.1333C9.6799 13.2435 9.51623 13.3018 9.34837 13.2965C9.1805 13.2913 9.02081 13.2229 8.90122 13.1049C8.78162 12.987 8.71093 12.8283 8.70329 12.6606C8.69564 12.4928 8.7516 12.3283 8.85998 12.2L12.3933 8.66667V8.66667Z" fill="white"/>
</svg>
