<svg width="18" height="10" viewBox="0 0 18 10" fill="none" xmlns="http://www.w3.org/2000/svg">
<path d="M14.5002 0.499969C14.8212 0.259252 15.2182 0.142386 15.6183 0.170819C16.0185 0.199269 16.395 0.371103 16.6787 0.654787C16.9623 0.93847 17.1342 1.31497 17.1627 1.71512C17.191 2.11529 17.0742 2.51229 16.8335 2.83329L10.1668 9.49995C9.85534 9.80528 9.43651 9.97645 9.00017 9.97645C8.56384 9.97645 8.14501 9.80528 7.83351 9.49995L1.16684 2.83329C0.926122 2.51229 0.809256 2.11529 0.837689 1.71512C0.866139 1.31497 1.03797 0.93847 1.32166 0.654787C1.60534 0.371103 1.98184 0.199269 2.38202 0.170819C2.78221 0.142386 3.17922 0.259252 3.50017 0.499969L9.00017 5.98329L14.5002 0.483303V0.499969Z" fill="#4A5568"/>
</svg>
