<svg width="26" height="26" viewBox="0 0 26 26" fill="none" xmlns="http://www.w3.org/2000/svg">
<path d="M8.34152 6.825L9.74985 8.21167L14.4082 3.55333C14.6166 3.37722 14.884 3.28628 15.1566 3.29871C15.4292 3.31113 15.6871 3.426 15.8787 3.62034C16.0704 3.81468 16.1815 4.07418 16.1901 4.34696C16.1986 4.61974 16.1039 4.88569 15.9249 5.09167L11.2882 9.75L15.9465 14.4083C16.1227 14.6168 16.2136 14.8841 16.2011 15.1567C16.1888 15.4294 16.0738 15.6872 15.8795 15.8789C15.6851 16.0705 15.4257 16.1817 15.1529 16.1902C14.8801 16.1988 14.6141 16.1041 14.4082 15.925L9.74985 11.2883L8.34152 12.6967C8.66785 13.3908 8.73822 14.1778 8.54017 14.9188C8.34212 15.6597 7.88842 16.3068 7.25931 16.7454C6.63021 17.1841 5.86622 17.3861 5.1025 17.3159C4.33877 17.2456 3.62452 16.9074 3.08606 16.3613C2.5476 15.8152 2.21964 15.0962 2.16018 14.3315C2.10071 13.5668 2.31359 12.8058 2.76115 12.183C3.2087 11.5602 3.86211 11.1157 4.60578 10.9281C5.34946 10.7407 6.13548 10.8222 6.82485 11.1583L8.21152 9.75L6.80318 8.34167C6.10912 8.668 5.32201 8.73837 4.58107 8.54032C3.84012 8.34227 3.1931 7.88857 2.75442 7.25946C2.31574 6.63036 2.11369 5.86637 2.18399 5.10265C2.25429 4.33893 2.59242 3.62467 3.13857 3.08621C3.68472 2.54775 4.4037 2.21979 5.16835 2.16033C5.93298 2.10087 6.69403 2.31374 7.31684 2.7613C7.93967 3.20886 8.38416 3.86226 8.57167 4.60593C8.75918 5.34961 8.67766 6.13563 8.34152 6.825ZM22.7499 8.66667C23.0372 8.66667 23.3128 8.78081 23.5159 8.98397C23.719 9.18713 23.8332 9.46268 23.8332 9.75V10.8333C23.8332 11.1206 23.719 11.3962 23.5159 11.5994C23.3128 11.8025 23.0372 11.9167 22.7499 11.9167C22.4626 11.9167 22.187 11.8025 21.9838 11.5994C21.7806 11.3962 21.6665 11.1206 21.6665 10.8333C21.3792 10.8333 21.1036 10.7192 20.9005 10.516C20.6973 10.3129 20.5832 10.0373 20.5832 9.75C20.5832 9.46268 20.6973 9.18713 20.9005 8.98397C21.1036 8.78081 21.3792 8.66667 21.6665 8.66667H22.7499ZM4.33318 21.6667C4.62049 21.6667 4.89605 21.7808 5.09921 21.984C5.30238 22.1871 5.41652 22.4627 5.41652 22.75C5.41652 23.0373 5.30238 23.3129 5.09921 23.516C4.89605 23.7192 4.62049 23.8333 4.33318 23.8333H3.24985C2.96253 23.8333 2.68698 23.7192 2.48381 23.516C2.28064 23.3129 2.16652 23.0373 2.16652 22.75V21.6667C2.16652 21.3794 2.28064 21.1038 2.48381 20.9007C2.68698 20.6974 2.96253 20.5833 3.24985 20.5833C3.53716 20.5833 3.81272 20.6974 4.01587 20.9007C4.21904 21.1038 4.33318 21.3794 4.33318 21.6667ZM22.7499 23.8333H21.6665C21.3792 23.8333 21.1036 23.7192 20.9005 23.516C20.6973 23.3129 20.5832 23.0373 20.5832 22.75C20.5832 22.4627 20.6973 22.1871 20.9005 21.984C21.1036 21.7808 21.3792 21.6667 21.6665 21.6667C21.6665 21.3794 21.7806 21.1038 21.9838 20.9007C22.187 20.6974 22.4626 20.5833 22.7499 20.5833C23.0372 20.5833 23.3128 20.6974 23.5159 20.9007C23.719 21.1038 23.8332 21.3794 23.8332 21.6667V22.75C23.8332 23.0373 23.719 23.3129 23.5159 23.516C23.3128 23.7192 23.0372 23.8333 22.7499 23.8333ZM15.1665 8.66667H17.3332C17.6205 8.66667 17.8961 8.78081 18.0992 8.98397C18.3023 9.18713 18.4165 9.46268 18.4165 9.75C18.4165 10.0373 18.3023 10.3129 18.0992 10.516C17.8961 10.7192 17.6205 10.8333 17.3332 10.8333H15.1665C14.8792 10.8333 14.6036 10.7192 14.4005 10.516C14.1973 10.3129 14.0832 10.0373 14.0832 9.75C14.0832 9.46268 14.1973 9.18713 14.4005 8.98397C14.6036 8.78081 14.8792 8.66667 15.1665 8.66667ZM22.7499 14.0833C23.0372 14.0833 23.3128 14.1974 23.5159 14.4007C23.719 14.6038 23.8332 14.8794 23.8332 15.1667V17.3333C23.8332 17.6206 23.719 17.8962 23.5159 18.0994C23.3128 18.3025 23.0372 18.4167 22.7499 18.4167C22.4626 18.4167 22.187 18.3025 21.9838 18.0994C21.7806 17.8962 21.6665 17.6206 21.6665 17.3333V15.1667C21.6665 14.8794 21.7806 14.6038 21.9838 14.4007C22.187 14.1974 22.4626 14.0833 22.7499 14.0833ZM15.1665 21.6667H17.3332C17.6205 21.6667 17.8961 21.7808 18.0992 21.984C18.3023 22.1871 18.4165 22.4627 18.4165 22.75C18.4165 23.0373 18.3023 23.3129 18.0992 23.516C17.8961 23.7192 17.6205 23.8333 17.3332 23.8333H15.1665C14.8792 23.8333 14.6036 23.7192 14.4005 23.516C14.1973 23.3129 14.0832 23.0373 14.0832 22.75C14.0832 22.4627 14.1973 22.1871 14.4005 21.984C14.6036 21.7808 14.8792 21.6667 15.1665 21.6667ZM8.66652 21.6667H10.8332C11.1205 21.6667 11.3961 21.7808 11.5992 21.984C11.8023 22.1871 11.9165 22.4627 11.9165 22.75C11.9165 23.0373 11.8023 23.3129 11.5992 23.516C11.3961 23.7192 11.1205 23.8333 10.8332 23.8333H8.66652C8.37919 23.8333 8.10365 23.7192 7.90048 23.516C7.69732 23.3129 7.58318 23.0373 7.58318 22.75C7.58318 22.4627 7.69732 22.1871 7.90048 21.984C8.10365 21.7808 8.37919 21.6667 8.66652 21.6667ZM6.17485 14.8417C6.29902 14.7485 6.40172 14.6298 6.47602 14.4935C6.55031 14.3572 6.59446 14.2066 6.60545 14.0518C6.61646 13.897 6.59407 13.7416 6.53979 13.5962C6.48552 13.4508 6.40063 13.3187 6.29087 13.209C6.18113 13.0992 6.04907 13.0143 5.90366 12.96C5.75825 12.9058 5.60287 12.8833 5.44805 12.8944C5.29323 12.9054 5.14258 12.9495 5.0063 13.0238C4.87003 13.0982 4.75131 13.2009 4.65818 13.325C4.50172 13.5337 4.42575 13.7917 4.44423 14.0518C4.46273 14.3119 4.57442 14.5567 4.75881 14.741C4.94321 14.9254 5.18793 15.0371 5.44805 15.0556C5.70817 15.0741 5.96623 14.9981 6.17485 14.8417ZM5.41652 6.5C5.70383 6.5 5.97938 6.38586 6.18254 6.18269C6.38571 5.97954 6.49985 5.70398 6.49985 5.41667C6.49985 5.12935 6.38571 4.8538 6.18254 4.65063C5.97938 4.44746 5.70383 4.33333 5.41652 4.33333C5.12919 4.33333 4.85365 4.44746 4.65048 4.65063C4.44731 4.8538 4.33318 5.12935 4.33318 5.41667C4.33318 5.70398 4.44731 5.97954 4.65048 6.18269C4.85365 6.38586 5.12919 6.5 5.41652 6.5Z" fill="#4A5568"/>
</svg>
