<svg width="16" height="16" viewBox="0 0 16 16" fill="none" xmlns="http://www.w3.org/2000/svg">
<path d="M12.3935 8.66667H2.00016C1.82335 8.66667 1.65378 8.59643 1.52876 8.47141C1.40373 8.34638 1.3335 8.17681 1.3335 8C1.3335 7.82319 1.40373 7.65362 1.52876 7.5286C1.65378 7.40357 1.82335 7.33333 2.00016 7.33333H12.3935L8.86016 3.8C8.79083 3.73973 8.73471 3.66579 8.69531 3.5828C8.65591 3.49982 8.63409 3.40958 8.63121 3.31777C8.62833 3.22595 8.64445 3.13453 8.67858 3.04924C8.7127 2.96395 8.76408 2.88663 8.8295 2.82213C8.89491 2.75764 8.97295 2.70736 9.05872 2.67445C9.14448 2.64154 9.23612 2.62671 9.32789 2.63089C9.41966 2.63507 9.50957 2.65818 9.59199 2.69875C9.67441 2.73932 9.74755 2.79649 9.80683 2.86667L14.4735 7.53333C14.5956 7.65795 14.6641 7.8255 14.6641 8C14.6641 8.1745 14.5956 8.34205 14.4735 8.46667L9.80683 13.1333C9.68008 13.2435 9.51642 13.3018 9.34855 13.2965C9.18069 13.2913 9.02099 13.2229 8.9014 13.1049C8.7818 12.987 8.71112 12.8283 8.70347 12.6605C8.69583 12.4928 8.75179 12.3283 8.86016 12.2L12.3935 8.66667Z" fill="#F79831"/>
</svg>
