<svg width="50" height="50" viewBox="0 0 50 50" fill="none" xmlns="http://www.w3.org/2000/svg">
<path d="M25 45.8334C19.4746 45.8334 14.1756 43.6384 10.2686 39.7314C6.36156 35.8244 4.16663 30.5254 4.16663 25C4.16663 19.4747 6.36156 14.1756 10.2686 10.2686C14.1756 6.36162 19.4746 4.16669 25 4.16669C30.5253 4.16669 35.8243 6.36162 39.7314 10.2686C43.6384 14.1756 45.8333 19.4747 45.8333 25C45.8333 30.5254 43.6384 35.8244 39.7314 39.7314C35.8243 43.6384 30.5253 45.8334 25 45.8334ZM25 41.6667C29.4202 41.6667 33.6595 39.9107 36.7851 36.7851C39.9107 33.6595 41.6666 29.4203 41.6666 25C41.6666 20.5797 39.9107 16.3405 36.7851 13.2149C33.6595 10.0893 29.4202 8.33335 25 8.33335C20.5797 8.33335 16.3405 10.0893 13.2148 13.2149C10.0892 16.3405 8.33329 20.5797 8.33329 25C8.33329 29.4203 10.0892 33.6595 13.2148 36.7851C16.3405 39.9107 20.5797 41.6667 25 41.6667ZM27.0833 24.1459L32.375 29.4167C32.7673 29.809 32.9877 30.3411 32.9877 30.8959C32.9877 31.4507 32.7673 31.9827 32.375 32.375C31.9827 32.7673 31.4506 32.9877 30.8958 32.9877C30.341 32.9877 29.8089 32.7673 29.4166 32.375L23.5416 26.4584C23.1491 26.0737 22.9245 25.5495 22.9166 25V16.6667C22.9166 16.1142 23.1361 15.5842 23.5268 15.1935C23.9175 14.8028 24.4474 14.5834 25 14.5834C25.5525 14.5834 26.0824 14.8028 26.4731 15.1935C26.8638 15.5842 27.0833 16.1142 27.0833 16.6667V24.1459Z" fill="#4A5568"/>
</svg>
