<svg xmlns="http://www.w3.org/2000/svg" style="position:absolute;width:0;height:0;overflow:hidden" version="1.1">
    <defs>
        <symbol id="time" viewBox="0 0 20 20">
            <path d="M10 20C7.34784 20 4.8043 18.9464 2.92893 17.0711C1.05357 15.1957 0 12.6522 0 10C0 7.34784 1.05357 4.8043 2.92893 2.92893C4.8043 1.05357 7.34784 0 10 0C12.6522 0 15.1957 1.05357 17.0711 2.92893C18.9464 4.8043 20 7.34784 20 10C20 12.6522 18.9464 15.1957 17.0711 17.0711C15.1957 18.9464 12.6522 20 10 20V20ZM10 18C12.1217 18 14.1566 17.1571 15.6569 15.6569C17.1571 14.1566 18 12.1217 18 10C18 7.87827 17.1571 5.84344 15.6569 4.34315C14.1566 2.84286 12.1217 2 10 2C7.87827 2 5.84344 2.84286 4.34315 4.34315C2.84285 5.84344 2 7.87827 2 10C2 12.1217 2.84285 14.1566 4.34315 15.6569C5.84344 17.1571 7.87827 18 10 18V18ZM11 9.59L13.54 12.12C13.7283 12.3083 13.8341 12.5637 13.8341 12.83C13.8341 13.0963 13.7283 13.3517 13.54 13.54C13.3517 13.7283 13.0963 13.8341 12.83 13.8341C12.5637 13.8341 12.3083 13.7283 12.12 13.54L9.3 10.7C9.11159 10.5154 9.00376 10.2638 9 10V6C9 5.73478 9.10536 5.48043 9.29289 5.29289C9.48043 5.10536 9.73478 5 10 5C10.2652 5 10.5196 5.10536 10.7071 5.29289C10.8946 5.48043 11 5.73478 11 6V9.59Z"/>
        </symbol>

        <symbol id="learn" viewBox="0 0 20 20">
            <path d="M4.3 10.3L14.3 0.299989C14.4869 0.116759 14.7382 0.0141296 15 0.0141296C15.2618 0.0141296 15.5131 0.116759 15.7 0.299989L19.7 4.29999C19.8832 4.48692 19.9859 4.73823 19.9859 4.99999C19.9859 5.26174 19.8832 5.51306 19.7 5.69999L9.7 15.7C9.5154 15.8884 9.2638 15.9962 9 16H5C4.73478 16 4.48043 15.8946 4.29289 15.7071C4.10536 15.5196 4 15.2652 4 15V11C4.00376 10.7362 4.11159 10.4846 4.3 10.3ZM6 14H8.59L17.59 4.99999L15 2.40999L6 11.41V14ZM16 12C16 11.7348 16.1054 11.4804 16.2929 11.2929C16.4804 11.1053 16.7348 11 17 11C17.2652 11 17.5196 11.1053 17.7071 11.2929C17.8946 11.4804 18 11.7348 18 12V18C18 18.5304 17.7893 19.0391 17.4142 19.4142C17.0391 19.7893 16.5304 20 16 20H2C1.46957 20 0.96086 19.7893 0.58579 19.4142C0.21071 19.0391 0 18.5304 0 18V3.99999C0 2.89999 0.9 1.99999 2 1.99999H8C8.2652 1.99999 8.5196 2.10534 8.7071 2.29288C8.8946 2.48042 9 2.73477 9 2.99999C9 3.2652 8.8946 3.51956 8.7071 3.70709C8.5196 3.89463 8.2652 3.99999 8 3.99999H2V18H16V12Z"/>
        </symbol>

        <symbol id="expect" viewBox="0 0 23 22">
            <path d="M6.09994 20.98C5.93434 21.0671 5.74762 21.106 5.56102 21.0922C5.37442 21.0785 5.19542 21.0126 5.04437 20.9022C4.89332 20.7918 4.77628 20.6412 4.70656 20.4676C4.63683 20.294 4.61722 20.1042 4.64994 19.92L5.67994 13.89L1.29994 9.63C1.16494 9.4996 1.06938 9.3338 1.0242 9.1515C0.979023 8.96932 0.986048 8.77807 1.04448 8.59966C1.1029 8.42125 1.21037 8.26289 1.35458 8.1427C1.49879 8.02251 1.67393 7.94534 1.85994 7.92002L7.90994 7.04002L10.6099 1.56002C10.6918 1.39095 10.8196 1.24836 10.9788 1.14859C11.138 1.04883 11.322 0.995911 11.5099 0.995911C11.6978 0.995911 11.8818 1.04883 12.041 1.14859C12.2002 1.24836 12.328 1.39095 12.4099 1.56002L15.1099 7.04002L21.1699 7.92002C21.3531 7.94828 21.5247 8.02687 21.6658 8.14703C21.8069 8.26719 21.9118 8.42419 21.9689 8.60051C22.0259 8.77682 22.0328 8.96552 21.9889 9.1455C21.9449 9.3256 21.8518 9.4898 21.7199 9.62L17.3399 13.89L18.3799 19.92C18.414 20.1056 18.3949 20.297 18.3249 20.4722C18.2548 20.6474 18.1366 20.7992 17.9839 20.9101C17.8312 21.0209 17.6503 21.0863 17.462 21.0987C17.2737 21.1111 17.0858 21.0699 16.9199 20.98L11.5199 18.13L6.09994 20.98ZM11.0499 16.11C11.1933 16.0347 11.3529 15.9953 11.5149 15.9953C11.6769 15.9953 11.8365 16.0347 11.9799 16.11L16.0599 18.26L15.2799 13.71C15.2537 13.5508 15.2663 13.3876 15.3168 13.2344C15.3673 13.0812 15.4542 12.9424 15.5699 12.83L18.8699 9.61L14.3099 8.94002C14.1489 8.91851 13.9955 8.8581 13.8631 8.76401C13.7307 8.66992 13.6232 8.54499 13.5499 8.40002L11.5099 4.26002L9.46994 8.40002C9.39759 8.54372 9.29163 8.66785 9.16107 8.76186C9.0305 8.85587 8.87918 8.91698 8.71994 8.94002L4.14994 9.61L7.44994 12.83C7.56747 12.9414 7.65618 13.0797 7.70843 13.233C7.76069 13.3863 7.77493 13.55 7.74994 13.71L6.95994 18.26L11.0499 16.11Z"/>
        </symbol>

        <symbol id="cash" viewBox="0 0 24 24">
            <path d="M5 6h18v12H5V6m9 3a3 3 0 0 1 3 3a3 3 0 0 1-3 3a3 3 0 0 1-3-3a3 3 0 0 1 3-3M9 8a2 2 0 0 1-2 2v4a2 2 0 0 1 2 2h10a2 2 0 0 1 2-2v-4a2 2 0 0 1-2-2H9m-8 2h2v10h16v2H1V10z"/>
        </symbol>

        <symbol id="arrow-right" viewBox="0 0 24 24">
           <path d="M11.3935 6.66667H1.00016C0.823352 6.66667 0.653782 6.59643 0.528758 6.47141C0.403734 6.34638 0.333496 6.17681 0.333496 6C0.333496 5.82319 0.403734 5.65362 0.528758 5.5286C0.653782 5.40357 0.823352 5.33333 1.00016 5.33333H11.3935L7.86016 1.8C7.79083 1.73973 7.73471 1.66579 7.69531 1.5828C7.65591 1.49982 7.63409 1.40958 7.63121 1.31777C7.62833 1.22595 7.64445 1.13453 7.67858 1.04924C7.7127 0.963945 7.76408 0.886627 7.8295 0.822133C7.89491 0.757638 7.97295 0.707359 8.05872 0.67445C8.14448 0.64154 8.23612 0.626711 8.32789 0.630893C8.41966 0.635074 8.50957 0.658176 8.59199 0.698749C8.67441 0.739322 8.74755 0.796491 8.80683 0.866667L13.4735 5.53333C13.5956 5.65795 13.6641 5.8255 13.6641 6C13.6641 6.1745 13.5956 6.34205 13.4735 6.46667L8.80683 11.1333C8.68008 11.2435 8.51642 11.3018 8.34855 11.2965C8.18069 11.2913 8.02099 11.2228 7.9014 11.1049C7.7818 10.987 7.71112 10.8283 7.70347 10.6605C7.69583 10.4928 7.75179 10.3283 7.86016 10.2L11.3935 6.66667V6.66667Z"/>
        </symbol>

        <symbol id="duration" viewBox="0 0 24 24">
            <path fill-rule="evenodd" clip-rule="evenodd" d="M16.5522 0H20.5522V20.8696H16.5522V0ZM0.552246 13.0435H4.55226V20.8695H0.552246V13.0435ZM12.552 6.52174H8.55199V20.8696H12.552V6.52174Z"/>
        </symbol>

        <symbol id="scissors" viewBox="0 0 24 24">
            <path d="M8.34152 6.825L9.74985 8.21167L14.4082 3.55333C14.6166 3.37722 14.884 3.28628 15.1566 3.29871C15.4292 3.31113 15.6871 3.426 15.8787 3.62034C16.0704 3.81468 16.1815 4.07418 16.1901 4.34696C16.1986 4.61974 16.1039 4.88569 15.9249 5.09167L11.2882 9.75L15.9465 14.4083C16.1227 14.6168 16.2136 14.8841 16.2011 15.1567C16.1888 15.4294 16.0738 15.6872 15.8795 15.8789C15.6851 16.0705 15.4257 16.1817 15.1529 16.1902C14.8801 16.1988 14.6141 16.1041 14.4082 15.925L9.74985 11.2883L8.34152 12.6967C8.66785 13.3908 8.73822 14.1778 8.54017 14.9188C8.34212 15.6597 7.88842 16.3068 7.25931 16.7454C6.63021 17.1841 5.86622 17.3861 5.1025 17.3159C4.33877 17.2456 3.62452 16.9074 3.08606 16.3613C2.5476 15.8152 2.21964 15.0962 2.16018 14.3315C2.10071 13.5668 2.31359 12.8058 2.76115 12.183C3.2087 11.5602 3.86211 11.1157 4.60578 10.9281C5.34946 10.7407 6.13548 10.8222 6.82485 11.1583L8.21152 9.75L6.80318 8.34167C6.10912 8.668 5.32201 8.73837 4.58107 8.54032C3.84012 8.34227 3.1931 7.88857 2.75442 7.25946C2.31574 6.63036 2.11369 5.86637 2.18399 5.10265C2.25429 4.33893 2.59242 3.62467 3.13857 3.08621C3.68472 2.54775 4.4037 2.21979 5.16835 2.16033C5.93298 2.10087 6.69403 2.31374 7.31684 2.7613C7.93967 3.20886 8.38416 3.86226 8.57167 4.60593C8.75918 5.34961 8.67766 6.13563 8.34152 6.825ZM22.7499 8.66667C23.0372 8.66667 23.3128 8.78081 23.5159 8.98397C23.719 9.18713 23.8332 9.46268 23.8332 9.75V10.8333C23.8332 11.1206 23.719 11.3962 23.5159 11.5994C23.3128 11.8025 23.0372 11.9167 22.7499 11.9167C22.4626 11.9167 22.187 11.8025 21.9838 11.5994C21.7806 11.3962 21.6665 11.1206 21.6665 10.8333C21.3792 10.8333 21.1036 10.7192 20.9005 10.516C20.6973 10.3129 20.5832 10.0373 20.5832 9.75C20.5832 9.46268 20.6973 9.18713 20.9005 8.98397C21.1036 8.78081 21.3792 8.66667 21.6665 8.66667H22.7499ZM4.33318 21.6667C4.62049 21.6667 4.89605 21.7808 5.09921 21.984C5.30238 22.1871 5.41652 22.4627 5.41652 22.75C5.41652 23.0373 5.30238 23.3129 5.09921 23.516C4.89605 23.7192 4.62049 23.8333 4.33318 23.8333H3.24985C2.96253 23.8333 2.68698 23.7192 2.48381 23.516C2.28064 23.3129 2.16652 23.0373 2.16652 22.75V21.6667C2.16652 21.3794 2.28064 21.1038 2.48381 20.9007C2.68698 20.6974 2.96253 20.5833 3.24985 20.5833C3.53716 20.5833 3.81272 20.6974 4.01587 20.9007C4.21904 21.1038 4.33318 21.3794 4.33318 21.6667ZM22.7499 23.8333H21.6665C21.3792 23.8333 21.1036 23.7192 20.9005 23.516C20.6973 23.3129 20.5832 23.0373 20.5832 22.75C20.5832 22.4627 20.6973 22.1871 20.9005 21.984C21.1036 21.7808 21.3792 21.6667 21.6665 21.6667C21.6665 21.3794 21.7806 21.1038 21.9838 20.9007C22.187 20.6974 22.4626 20.5833 22.7499 20.5833C23.0372 20.5833 23.3128 20.6974 23.5159 20.9007C23.719 21.1038 23.8332 21.3794 23.8332 21.6667V22.75C23.8332 23.0373 23.719 23.3129 23.5159 23.516C23.3128 23.7192 23.0372 23.8333 22.7499 23.8333ZM15.1665 8.66667H17.3332C17.6205 8.66667 17.8961 8.78081 18.0992 8.98397C18.3023 9.18713 18.4165 9.46268 18.4165 9.75C18.4165 10.0373 18.3023 10.3129 18.0992 10.516C17.8961 10.7192 17.6205 10.8333 17.3332 10.8333H15.1665C14.8792 10.8333 14.6036 10.7192 14.4005 10.516C14.1973 10.3129 14.0832 10.0373 14.0832 9.75C14.0832 9.46268 14.1973 9.18713 14.4005 8.98397C14.6036 8.78081 14.8792 8.66667 15.1665 8.66667ZM22.7499 14.0833C23.0372 14.0833 23.3128 14.1974 23.5159 14.4007C23.719 14.6038 23.8332 14.8794 23.8332 15.1667V17.3333C23.8332 17.6206 23.719 17.8962 23.5159 18.0994C23.3128 18.3025 23.0372 18.4167 22.7499 18.4167C22.4626 18.4167 22.187 18.3025 21.9838 18.0994C21.7806 17.8962 21.6665 17.6206 21.6665 17.3333V15.1667C21.6665 14.8794 21.7806 14.6038 21.9838 14.4007C22.187 14.1974 22.4626 14.0833 22.7499 14.0833ZM15.1665 21.6667H17.3332C17.6205 21.6667 17.8961 21.7808 18.0992 21.984C18.3023 22.1871 18.4165 22.4627 18.4165 22.75C18.4165 23.0373 18.3023 23.3129 18.0992 23.516C17.8961 23.7192 17.6205 23.8333 17.3332 23.8333H15.1665C14.8792 23.8333 14.6036 23.7192 14.4005 23.516C14.1973 23.3129 14.0832 23.0373 14.0832 22.75C14.0832 22.4627 14.1973 22.1871 14.4005 21.984C14.6036 21.7808 14.8792 21.6667 15.1665 21.6667ZM8.66652 21.6667H10.8332C11.1205 21.6667 11.3961 21.7808 11.5992 21.984C11.8023 22.1871 11.9165 22.4627 11.9165 22.75C11.9165 23.0373 11.8023 23.3129 11.5992 23.516C11.3961 23.7192 11.1205 23.8333 10.8332 23.8333H8.66652C8.37919 23.8333 8.10365 23.7192 7.90048 23.516C7.69732 23.3129 7.58318 23.0373 7.58318 22.75C7.58318 22.4627 7.69732 22.1871 7.90048 21.984C8.10365 21.7808 8.37919 21.6667 8.66652 21.6667ZM6.17485 14.8417C6.29902 14.7485 6.40172 14.6298 6.47602 14.4935C6.55031 14.3572 6.59446 14.2066 6.60545 14.0518C6.61646 13.897 6.59407 13.7416 6.53979 13.5962C6.48552 13.4508 6.40063 13.3187 6.29087 13.209C6.18113 13.0992 6.04907 13.0143 5.90366 12.96C5.75825 12.9058 5.60287 12.8833 5.44805 12.8944C5.29323 12.9054 5.14258 12.9495 5.0063 13.0238C4.87003 13.0982 4.75131 13.2009 4.65818 13.325C4.50172 13.5337 4.42575 13.7917 4.44423 14.0518C4.46273 14.3119 4.57442 14.5567 4.75881 14.741C4.94321 14.9254 5.18793 15.0371 5.44805 15.0556C5.70817 15.0741 5.96623 14.9981 6.17485 14.8417ZM5.41652 6.5C5.70383 6.5 5.97938 6.38586 6.18254 6.18269C6.38571 5.97954 6.49985 5.70398 6.49985 5.41667C6.49985 5.12935 6.38571 4.8538 6.18254 4.65063C5.97938 4.44746 5.70383 4.33333 5.41652 4.33333C5.12919 4.33333 4.85365 4.44746 4.65048 4.65063C4.44731 4.8538 4.33318 5.12935 4.33318 5.41667C4.33318 5.70398 4.44731 5.97954 4.65048 6.18269C4.85365 6.38586 5.12919 6.5 5.41652 6.5Z" />
        </symbol>

        <symbol viewBox="0 0 35 35" id="check">
            <circle cx="17.5" cy="17.5" r="17.5" fill="#EDF2F7"/>
            <path d="M14.7951 21.875L10.6251 17.705L9.20508 19.115L14.7951 24.705L26.7951 12.705L25.3851 11.295L14.7951 21.875Z" fill="#4A5568"/>
        </symbol>





        <!-- <svg xmlns="http://www.w3.org/2000/svg" xmlns:xlink="http://www.w3.org/1999/xlink" aria-hidden="true" focusable="false" width="1em" height="1em" style="-ms-transform: rotate(360deg); -webkit-transform: rotate(360deg); transform: rotate(360deg);" preserveAspectRatio="xMidYMid meet" viewBox="0 0 24 24"></svg> -->
    </defs>
</svg>