<svg width="42" height="35" viewBox="0 0 42 35" fill="none" xmlns="http://www.w3.org/2000/svg">
<path d="M4.2 0.833008H37.8C38.9139 0.833008 39.9822 1.27195 40.7698 2.05327C41.5575 2.8346 42 3.8943 42 4.99926V29.9968C42 31.1017 41.5575 32.1614 40.7698 32.9427C39.9822 33.7241 38.9139 34.163 37.8 34.163H4.2C3.08609 34.163 2.0178 33.7241 1.23015 32.9427C0.442499 32.1614 0 31.1017 0 29.9968V4.99926C0 2.70782 1.89 0.833008 4.2 0.833008ZM37.8 18.7271V4.99926H4.2V18.7271L13.23 9.76961C13.6226 9.38793 14.1503 9.17414 14.7 9.17414C15.2497 9.17414 15.7774 9.38793 16.17 9.76961L27.3 20.8102L32.13 16.019C32.5225 15.6373 33.0503 15.4235 33.6 15.4235C34.1497 15.4235 34.6774 15.6373 35.07 16.019L37.8 18.7271ZM37.8 24.6015L33.6 20.4352L28.77 25.2264C28.3774 25.6081 27.8497 25.8219 27.3 25.8219C26.7503 25.8219 26.2225 25.6081 25.83 25.2264L14.7 14.165L4.2 24.5806V29.9968H37.8V24.6015ZM27.3 13.3318C26.743 13.3318 26.2089 13.1123 25.8151 12.7216C25.4212 12.331 25.2 11.8011 25.2 11.2486C25.2 10.6962 25.4212 10.1663 25.8151 9.77564C26.2089 9.38498 26.743 9.16551 27.3 9.16551C27.857 9.16551 28.3911 9.38498 28.7849 9.77564C29.1787 10.1663 29.4 10.6962 29.4 11.2486C29.4 11.8011 29.1787 12.331 28.7849 12.7216C28.3911 13.1123 27.857 13.3318 27.3 13.3318Z" fill="#4A5568"/>
</svg>
